# xmcd
# 
# Track frame offsets:
#     150
#     25734
#     50167
#     69369
#     103891
# 
# Disc length: 1899
# 
# Revision: 2
# Processed by: cddbd v1.5.2PL0 Copyright (c) Steve Scherf et al.
# Submitted via: BonkEnc v1.0.15
# 
DISCID=40076905
DTITLE=The Dave Pike Set - Live At The Philharmonie
DYEAR=1969
DGENRE=Jazz Rock
TTITLE0=Hey Duke
TTITLE1=Mambo Jack The Scoffer
TTITLE2=Riff For Rent
TTITLE3=Nobody's Afraid of Howard Monster
TTITLE4=The Secret Mystery of Hensh
EXTD=YEAR: 1970
EXTT0=
EXTT1=
EXTT2=
EXTT3=
EXTT4=
PLAYORDER=
